<?xml version="1.0" encoding="utf-8"?>
<!-- Generator: Adobe Illustrator 14.0.0, SVG Export Plug-In . SVG Version: 6.00 Build 43363)  -->
<!DOCTYPE svg PUBLIC "-//W3C//DTD SVG 1.1//EN" "http://www.w3.org/Graphics/SVG/1.1/DTD/svg11.dtd">
<svg version="1.1" id="레이어_1" xmlns="http://www.w3.org/2000/svg" xmlns:xlink="http://www.w3.org/1999/xlink" x="0px"
	 y="0px" width="44px" height="44px" viewBox="0 0 44 44" enable-background="new 0 0 44 44" xml:space="preserve">
<g>
	<rect opacity="0.9" width="44" height="44"/>
	<polygon fill="#8D8D8D" points="28.454,16.134 22.014,9.693 22.001,9.706 21.988,9.693 15.546,16.137 16.267,16.857 22.001,11.122 
		27.734,16.855 	"/>
	<g>
		<path fill="#8D8D8D" d="M12.287,24.409h5.662v0.829h-2.354v6.677h-0.943v-6.677h-2.365V24.409z"/>
		<path fill="#8D8D8D" d="M24.807,30.203c-0.283,0.582-0.677,1.03-1.179,1.344c-0.504,0.316-1.075,0.473-1.714,0.473
			c-0.643,0-1.214-0.156-1.715-0.473c-0.501-0.313-0.894-0.762-1.177-1.344c-0.284-0.584-0.426-1.263-0.426-2.042
			c0-0.776,0.142-1.455,0.426-2.038c0.283-0.583,0.675-1.031,1.177-1.346c0.501-0.314,1.073-0.472,1.715-0.472
			c0.64,0,1.21,0.157,1.714,0.472c0.502,0.314,0.896,0.763,1.179,1.346s0.426,1.262,0.426,2.038
			C25.232,28.94,25.09,29.619,24.807,30.203z M24.014,26.545c-0.211-0.448-0.499-0.79-0.862-1.021
			c-0.365-0.23-0.777-0.347-1.238-0.347c-0.459,0-0.871,0.116-1.236,0.347c-0.364,0.231-0.652,0.573-0.863,1.021
			c-0.211,0.449-0.316,0.988-0.316,1.616c0,0.627,0.105,1.164,0.316,1.611c0.211,0.446,0.499,0.788,0.863,1.021
			c0.365,0.234,0.777,0.354,1.236,0.355c0.46-0.002,0.873-0.121,1.238-0.355c0.363-0.232,0.651-0.574,0.862-1.021
			c0.211-0.447,0.315-0.984,0.315-1.611C24.329,27.533,24.225,26.994,24.014,26.545z"/>
		<path fill="#8D8D8D" d="M26.6,24.409h2.551c0.567,0,1.043,0.104,1.427,0.311c0.383,0.208,0.668,0.49,0.854,0.849
			c0.187,0.357,0.281,0.766,0.281,1.226c0,0.457-0.095,0.863-0.281,1.225c-0.187,0.357-0.471,0.643-0.852,0.854
			c-0.383,0.211-0.855,0.315-1.419,0.315h-1.824v-0.829h1.782c0.388,0,0.705-0.067,0.955-0.202c0.248-0.135,0.429-0.317,0.542-0.549
			c0.111-0.232,0.17-0.503,0.173-0.814c-0.003-0.312-0.062-0.582-0.173-0.813c-0.113-0.232-0.294-0.412-0.545-0.546
			c-0.252-0.13-0.571-0.196-0.962-0.196h-1.576v6.677H26.6V24.409z"/>
	</g>
</g>
</svg>
