<?xml version="1.0" encoding="utf-8"?>
<!-- Generator: Adobe Illustrator 14.0.0, SVG Export Plug-In . SVG Version: 6.00 Build 43363)  -->
<!DOCTYPE svg PUBLIC "-//W3C//DTD SVG 1.1//EN" "http://www.w3.org/Graphics/SVG/1.1/DTD/svg11.dtd">
<svg version="1.1" id="레이어_1" xmlns="http://www.w3.org/2000/svg" xmlns:xlink="http://www.w3.org/1999/xlink" x="0px"
	 y="0px" width="109.595px" height="41.458px" viewBox="0 0 109.595 41.458" enable-background="new 0 0 109.595 41.458"
	 xml:space="preserve" fill="#fff">
<g>
	<g>
		<path d="M0,28.013V12.577h4.301c0.412,0,0.813,0.014,1.204,0.042s0.792,0.085,1.204,0.175s0.792,0.22,1.142,0.391
			c0.35,0.171,0.642,0.395,0.875,0.669c0.397,0.439,0.665,0.93,0.803,1.471c0.137,0.542,0.206,1.17,0.206,1.883
			c0,0.453-0.031,0.889-0.093,1.307c-0.062,0.418-0.168,0.823-0.319,1.214c-0.151,0.391-0.36,0.741-0.628,1.049
			c-0.267,0.309-0.6,0.553-0.998,0.731c-0.425,0.206-0.875,0.336-1.348,0.391c-0.473,0.055-1.06,0.083-1.76,0.083
			c-0.398,0-0.72,0.007-0.967,0.021v6.01H0z M3.622,19.225c0.069,0,0.178,0,0.33,0c0.398,0,0.73-0.024,0.998-0.072
			c0.268-0.048,0.504-0.154,0.71-0.319c0.178-0.192,0.298-0.422,0.36-0.689c0.062-0.268,0.093-0.559,0.093-0.875
			c0-0.412-0.045-0.782-0.134-1.112c-0.089-0.329-0.271-0.556-0.545-0.679c-0.233-0.082-0.707-0.123-1.42-0.123H3.622V19.225z"/>
		<path d="M16.671,26.983c-0.439,0.494-0.864,0.851-1.276,1.07s-0.926,0.33-1.543,0.33c-0.919,0-1.65-0.285-2.192-0.854
			c-0.542-0.569-0.813-1.313-0.813-2.233c0-0.631,0.079-1.169,0.236-1.616c0.158-0.445,0.367-0.816,0.628-1.111
			c0.26-0.295,0.556-0.531,0.885-0.71c0.33-0.178,0.7-0.336,1.111-0.473c0.165-0.055,0.418-0.13,0.762-0.227
			c0.727-0.219,1.255-0.432,1.585-0.638c0.329-0.206,0.494-0.535,0.494-0.988c0-0.329-0.092-0.61-0.278-0.844
			c-0.185-0.233-0.436-0.35-0.751-0.35c-0.508,0-0.833,0.134-0.978,0.401s-0.237,0.689-0.278,1.266v0.123h-3.272
			c0-0.754,0.099-1.375,0.298-1.862c0.199-0.487,0.49-0.888,0.875-1.204c0.754-0.604,1.838-0.906,3.252-0.906
			c1.605,0,2.741,0.268,3.406,0.803c0.665,0.535,0.998,1.441,0.998,2.717v7.06c0,0.343,0.089,0.769,0.268,1.276h-3.19L16.671,26.983
			z M16.547,22.415c-0.192,0.096-0.432,0.213-0.72,0.35c-0.453,0.206-0.762,0.37-0.926,0.494c-0.233,0.165-0.418,0.364-0.556,0.597
			s-0.206,0.528-0.206,0.885c0,0.371,0.106,0.669,0.319,0.896c0.212,0.226,0.511,0.339,0.896,0.339c0.439,0,0.744-0.171,0.916-0.515
			c0.171-0.343,0.264-0.754,0.278-1.235V22.415z"/>
		<path d="M20.931,29.536h0.412c0.247-0.014,0.412-0.12,0.494-0.319c0.082-0.199,0.124-0.442,0.124-0.731V16.487h3.272v11.813
			c0,1.166-0.189,2.048-0.566,2.645c-0.377,0.597-1.101,0.916-2.171,0.957h-1.564V29.536z M21.96,15.355v-2.779h3.272v2.779H21.96z"
			/>
		<path d="M32.559,28.013v-1.42h-0.041c-0.165,0.466-0.463,0.882-0.896,1.245c-0.432,0.363-0.895,0.545-1.389,0.545
			c-0.947,0-1.67-0.209-2.171-0.628s-0.751-1.019-0.751-1.801v-9.467h3.272v8.253c0.027,0.302,0.096,0.539,0.206,0.71
			c0.11,0.172,0.309,0.257,0.597,0.257c0.631-0.027,0.947-0.35,0.947-0.967v-8.253h3.272v11.525H32.559z"/>
		<path d="M40.916,17.434h0.041c0.233-0.466,0.566-0.796,0.999-0.988c0.432-0.192,0.916-0.289,1.451-0.289
			c0.521,0,0.964,0.113,1.328,0.34c0.363,0.227,0.651,0.532,0.864,0.916s0.367,0.81,0.463,1.276c0.096,0.467,0.144,0.94,0.144,1.42
			v3.993c0,0.549-0.042,1.063-0.124,1.544c-0.083,0.48-0.227,0.926-0.432,1.337c-0.206,0.412-0.498,0.745-0.875,0.999
			c-0.377,0.253-0.854,0.387-1.43,0.401c-0.549-0.028-1.057-0.186-1.523-0.474c-0.467-0.288-0.831-0.692-1.091-1.214h-0.042v1.317
			h-3.046V12.577h3.272V17.434z M42.933,20.727c0-0.247-0.007-0.463-0.021-0.648c-0.014-0.185-0.048-0.374-0.103-0.566
			c-0.055-0.192-0.151-0.35-0.288-0.474c-0.137-0.123-0.316-0.185-0.535-0.185c-0.412,0-0.693,0.179-0.844,0.535
			c-0.151,0.357-0.227,0.851-0.227,1.482v2.717c0,0.59,0.075,1.091,0.227,1.502c0.151,0.412,0.412,0.617,0.782,0.617
			c0.233,0,0.418-0.058,0.556-0.175c0.137-0.117,0.24-0.268,0.309-0.453c0.068-0.186,0.109-0.388,0.124-0.607
			c0.013-0.219,0.021-0.473,0.021-0.761V20.727z"/>
		<path d="M47.81,20.109c0-1.413,0.374-2.425,1.122-3.036c0.748-0.61,1.801-0.916,3.159-0.916c2.854,0,4.281,1.317,4.281,3.952
			v4.693c-0.083,1.262-0.491,2.175-1.225,2.737c-0.734,0.562-1.753,0.844-3.056,0.844c-0.604,0-1.163-0.065-1.678-0.196
			c-0.514-0.13-0.967-0.339-1.358-0.627c-0.391-0.288-0.696-0.659-0.916-1.111c-0.22-0.453-0.33-1.001-0.33-1.646V20.109z
			 M51.083,25.008c0.068,0.672,0.405,1.008,1.009,1.008c0.604,0,0.939-0.336,1.008-1.008v-5.146c0-0.412-0.079-0.737-0.237-0.978
			c-0.158-0.24-0.415-0.36-0.771-0.36c-0.357,0-0.614,0.12-0.772,0.36c-0.158,0.24-0.237,0.566-0.237,0.978V25.008z"/>
		<path d="M58.101,20.109c0-1.413,0.374-2.425,1.122-3.036c0.748-0.61,1.801-0.916,3.159-0.916c2.854,0,4.281,1.317,4.281,3.952
			v4.693c-0.083,1.262-0.491,2.175-1.225,2.737c-0.734,0.562-1.753,0.844-3.056,0.844c-0.604,0-1.163-0.065-1.678-0.196
			c-0.514-0.13-0.967-0.339-1.358-0.627c-0.391-0.288-0.696-0.659-0.916-1.111c-0.22-0.453-0.33-1.001-0.33-1.646V20.109z
			 M61.373,25.008c0.068,0.672,0.405,1.008,1.009,1.008c0.604,0,0.939-0.336,1.008-1.008v-5.146c0-0.412-0.079-0.737-0.237-0.978
			c-0.158-0.24-0.415-0.36-0.771-0.36c-0.357,0-0.614,0.12-0.772,0.36c-0.158,0.24-0.237,0.566-0.237,0.978V25.008z"/>
		<path d="M68.35,28.013V12.577h3.272v7.759h0.041l2.244-3.849h3.581l-3.252,4.631l3.293,6.895h-3.437l-1.914-4.445l-0.556,0.741
			v3.705H68.35z"/>
		<path d="M84.115,20.768l-0.021-0.206c-0.014-0.137-0.028-0.336-0.041-0.597c-0.028-0.315-0.055-0.556-0.083-0.72
			c-0.151-0.48-0.446-0.72-0.885-0.72c-0.384,0-0.645,0.124-0.782,0.37c-0.137,0.247-0.206,0.59-0.206,1.029v4.754
			c0,0.412,0.079,0.737,0.237,0.978s0.429,0.36,0.813,0.36c0.412,0,0.686-0.175,0.823-0.524c0.137-0.35,0.206-0.799,0.206-1.348
			c0-0.165-0.007-0.322-0.021-0.474v-0.329h3.169c0,0.412-0.024,0.899-0.072,1.461c-0.048,0.563-0.113,0.988-0.196,1.276
			c-0.206,0.686-0.583,1.211-1.132,1.574c-0.549,0.364-1.201,0.587-1.955,0.669c-0.11,0.014-0.192,0.021-0.247,0.021
			c-0.316,0.027-0.597,0.042-0.844,0.042c-1.263,0-2.253-0.285-2.974-0.854c-0.72-0.569-1.081-1.478-1.081-2.727v-4.693
			c0-1.427,0.343-2.442,1.029-3.046c0.686-0.604,1.694-0.906,3.025-0.906c1.509,0.014,2.61,0.343,3.303,0.988s1.04,1.66,1.04,3.046
			c0,0.055-0.007,0.144-0.021,0.268c0,0.137,0,0.24,0,0.309H84.115z"/>
		<path d="M89.343,15.355v-2.779h3.272v2.779H89.343z M89.343,28.013V16.487h3.272v11.525H89.343z"/>
		<path d="M94.077,18.854v-2.367h1.296v-3.293h3.272v3.293h1.564v2.367h-1.564v6.071c0,0.302,0.062,0.512,0.186,0.628
			c0.123,0.117,0.301,0.175,0.535,0.175c0.11-0.013,0.213-0.023,0.309-0.031c0.096-0.007,0.274-0.01,0.535-0.01v2.305
			c-0.837,0.124-1.537,0.185-2.1,0.185c-1.825,0-2.737-0.885-2.737-2.655v-6.668H94.077z"/>
		<path d="M105.211,23.938h0.041l1.132-7.45h3.21l-2.079,9.858c-0.083,0.302-0.185,0.728-0.309,1.276
			c-0.192,0.81-0.36,1.441-0.504,1.894s-0.354,0.861-0.628,1.225c-0.274,0.363-0.648,0.648-1.122,0.854
			c-0.473,0.206-1.081,0.309-1.821,0.309c-0.22,0-0.494-0.021-0.823-0.062c-0.22-0.028-0.377-0.041-0.474-0.041v-2.429h0.062
			c0.247,0.027,0.439,0.055,0.576,0.083h0.062c0.027,0.013,0.054,0.021,0.082,0.021c0.206,0,0.398-0.055,0.576-0.165
			s0.268-0.254,0.268-0.432c0-0.192-0.027-0.422-0.082-0.689c-0.055-0.268-0.124-0.58-0.206-0.937
			c-0.041-0.165-0.069-0.274-0.082-0.329l-2.285-10.435h3.293L105.211,23.938z"/>
	</g>
	<g>
		<path d="M3.55,36.539H2.927v2.829c0.302-0.024,0.596-0.051,0.881-0.084l0.034,0.467c-1.27,0.213-2.703,0.234-3.767,0.237L0,39.452
			c0.241,0,0.501-0.003,0.772-0.007v-2.906H0.149v-0.528H3.55V36.539z M2.304,39.405v-2.866H1.396v2.896
			C1.694,39.429,1.999,39.418,2.304,39.405z M4.16,35.387h0.644v2.392h0.976v0.529H4.804v3.15H4.16V35.387z"/>
		<path d="M11.603,39.331H9.137v2.121h-0.63v-2.121H6.068v-0.522h5.535V39.331z M8.473,36.261H6.583v-0.515h4.499v0.515H9.205
			c0.01,0.749,0.945,1.423,2.093,1.579l-0.237,0.508c-0.996-0.156-1.856-0.647-2.226-1.338c-0.373,0.691-1.229,1.183-2.212,1.338
			L6.379,37.84C7.511,37.684,8.453,37.01,8.473,36.261z"/>
		<path d="M17.589,38.531h-2.446v0.508h1.755v1.369h-3.537v0.501h3.706v0.487h-4.336V39.96h3.529v-0.454h-3.536v-0.467h1.782v-0.508
			h-2.439V38.05h5.521V38.531z M14.453,36.39h-1.836v-0.495h1.89V35.36h0.637v0.535h1.897v0.495h-1.846
			c0.129,0.515,0.949,0.871,2.124,0.935l-0.197,0.488c-1.057-0.078-1.917-0.386-2.296-0.918c-0.379,0.532-1.24,0.84-2.304,0.918
			l-0.183-0.488C13.5,37.261,14.32,36.905,14.453,36.39z"/>
		<path d="M21.502,36.458h-0.576v1.903c0.288-0.02,0.569-0.047,0.84-0.081l0.041,0.481c-1.223,0.193-2.639,0.22-3.679,0.224
			l-0.074-0.528c0.234,0,0.484-0.003,0.745-0.007v-1.992h-0.576v-0.522h3.279V36.458z M18.976,39.432h0.644v1.375h3.462v0.522
			h-4.105V39.432z M20.296,38.402v-1.944h-0.874v1.978C19.71,38.426,20.002,38.416,20.296,38.402z M22.18,35.394h0.644v1.795h0.881
			v0.542h-0.881v2.127H22.18V35.394z"/>
		<path d="M29.596,38.978h-2.412v1.179h-0.637v-1.179h-2.507v-0.521h5.556V38.978z M24.731,39.581h0.644v1.226h3.604v0.522h-4.248
			V39.581z M24.752,35.672h4.126v2.154h-4.126V35.672z M28.241,37.318V36.18h-2.859v1.138H28.241z"/>
		<path d="M31.579,39.788v-0.616c-0.685-0.102-1.132-0.515-1.125-1.101c-0.007-0.685,0.586-1.135,1.45-1.138
			c0.86,0.003,1.46,0.454,1.463,1.138c-0.003,0.586-0.457,1.002-1.145,1.101v0.593c0.539-0.027,1.081-0.071,1.585-0.143l0.041,0.474
			c-1.314,0.234-2.734,0.248-3.781,0.244l-0.102-0.535C30.443,39.805,30.999,39.805,31.579,39.788z M30.081,36.105h1.498v-0.705
			h0.644v0.705h1.497v0.515h-3.638V36.105z M31.904,38.693c0.508,0.003,0.843-0.237,0.847-0.623
			c-0.003-0.39-0.339-0.637-0.847-0.637c-0.508,0-0.847,0.247-0.847,0.637C31.057,38.457,31.396,38.697,31.904,38.693z
			 M34.796,37.928h0.915v0.542h-0.915v2.988h-0.644v-6.07h0.644V37.928z"/>
		<path d="M37.551,36.465v-0.136h-1.314v-0.521h3.272v0.521h-1.301v0.129c-0.003,0.769,0.545,1.518,1.463,1.829l-0.332,0.508
			c-0.681-0.233-1.182-0.721-1.446-1.321c-0.265,0.677-0.796,1.223-1.521,1.49l-0.339-0.515
			C36.975,38.121,37.555,37.301,37.551,36.465z M39.062,39.168c1.271,0.003,2.049,0.423,2.053,1.145
			c-0.003,0.722-0.782,1.142-2.053,1.145c-1.277-0.003-2.056-0.423-2.053-1.145C37.006,39.591,37.785,39.171,39.062,39.168z
			 M39.062,40.95c0.884,0.007,1.413-0.227,1.416-0.637c-0.003-0.413-0.532-0.647-1.416-0.644c-0.891-0.003-1.419,0.23-1.416,0.644
			C37.643,40.723,38.171,40.957,39.062,40.95z M41.094,38.999h-0.644V37.46h-1.131v-0.528h1.131v-1.545h0.644V38.999z"/>
		<path d="M47.582,40.706h-5.555V40.17h2.446v-1.247h-1.809v-3.123h0.644v1.043h2.981v-1.043h0.637v3.123h-1.816v1.247h2.473V40.706
			z M46.288,38.402v-1.037h-2.981v1.037H46.288z"/>
		<path d="M51.618,38.389l-0.332,0.508c-0.681-0.237-1.189-0.722-1.457-1.335c-0.264,0.685-0.786,1.213-1.497,1.477l-0.359-0.508
			c0.962-0.329,1.514-1.148,1.518-2.053V35.76h0.637v0.739C50.127,37.312,50.693,38.077,51.618,38.389z M48.948,39.425h0.657v1.382
			h3.448v0.522h-4.105V39.425z M52.146,35.381h0.644v1.829h0.881v0.549H52.79v2.1h-0.644V35.381z"/>
		<path d="M57.244,36.803h1.186v-1.416h0.644v3.259H58.43v-1.314h-1.182c-0.125,0.698-0.749,1.165-1.555,1.165
			c-0.928,0-1.596-0.586-1.592-1.423c-0.003-0.826,0.664-1.416,1.592-1.409C56.492,35.658,57.112,36.123,57.244,36.803z
			 M55.693,37.955c0.563,0,0.962-0.362,0.962-0.881c0-0.521-0.399-0.877-0.962-0.874c-0.573-0.003-0.979,0.353-0.976,0.874
			C54.714,37.593,55.12,37.955,55.693,37.955z M55.117,38.938h0.637v0.705h2.676v-0.705h0.644v2.446h-3.957V38.938z M58.43,40.854
			V40.15h-2.676v0.704H58.43z"/>
		<path d="M60.277,35.902h2.71v0.521h-2.073v1.769c1.182,0.003,1.846-0.034,2.608-0.19l0.075,0.522
			c-0.82,0.162-1.538,0.203-2.839,0.203h-0.481V35.902z M60.927,39.324h0.644v1.483h3.462v0.522h-4.105V39.324z M64.775,37.142
			h0.887v0.535h-0.887v2.1h-0.644v-4.396h0.644V37.142z"/>
		<path d="M69.833,39.642l-0.352,0.501c-0.715-0.315-1.284-0.986-1.565-1.795c-0.281,0.867-0.851,1.605-1.559,1.951l-0.373-0.508
			c0.915-0.43,1.592-1.568,1.599-2.615v-0.644h-1.389v-0.535h3.421v0.535h-1.382v0.644C68.231,38.192,68.898,39.242,69.833,39.642z
			 M70.382,35.387h0.644v6.07h-0.644V35.387z"/>
		<path d="M77.316,39.547l-0.4,0.515c-0.661-0.345-1.172-1.023-1.439-1.833c-0.271,0.86-0.803,1.589-1.494,1.948l-0.399-0.521
			c0.932-0.447,1.562-1.613,1.565-2.724v-1.037h0.644v1.037C75.785,38.006,76.412,39.107,77.316,39.547z M77.77,35.387h0.644v2.419
			h0.976v0.549h-0.976v3.103H77.77V35.387z"/>
		<path d="M82.91,36.803h1.186v-1.416h0.644v3.259h-0.644v-1.314h-1.182c-0.125,0.698-0.749,1.165-1.555,1.165
			c-0.928,0-1.596-0.586-1.592-1.423c-0.003-0.826,0.664-1.416,1.592-1.409C82.158,35.658,82.778,36.123,82.91,36.803z
			 M81.358,37.955c0.562,0,0.962-0.362,0.962-0.881c0-0.521-0.4-0.877-0.962-0.874c-0.573-0.003-0.979,0.353-0.976,0.874
			C80.379,37.593,80.786,37.955,81.358,37.955z M80.783,38.938h0.637v0.705h2.676v-0.705h0.644v2.446h-3.956V38.938z M84.095,40.854
			V40.15h-2.676v0.704H84.095z"/>
		<path d="M89.093,36.485h-3.415V35.97h1.423v-0.637h0.637v0.637h1.355V36.485z M87.413,36.742c0.816,0.003,1.399,0.444,1.402,1.098
			c-0.003,0.661-0.586,1.094-1.402,1.098c-0.827-0.003-1.396-0.437-1.396-1.098C86.017,37.186,86.586,36.746,87.413,36.742z
			 M87.413,38.457c0.474,0,0.799-0.241,0.806-0.617c-0.007-0.369-0.332-0.606-0.806-0.603c-0.481-0.003-0.796,0.234-0.793,0.603
			C86.616,38.216,86.932,38.457,87.413,38.457z M86.735,39.229h0.637v0.576h2.724v-0.576h0.637v2.155h-3.997V39.229z M90.095,40.875
			v-0.576h-2.724v0.576H90.095z M89.106,37.955h0.982v-0.664h-0.976v-0.528h0.976v-1.375h0.644v3.598h-0.644v-0.508h-0.982V37.955z"
			/>
		<path d="M97.207,38.856h-5.542v-0.515h2.459v-0.644h-1.768v-2.033h4.167v0.508h-3.53v1.009h3.571v0.515h-1.816v0.644h2.459V38.856
			z M94.429,39.249c1.308,0.003,2.09,0.4,2.093,1.104c-0.003,0.705-0.786,1.101-2.093,1.104c-1.318-0.003-2.107-0.399-2.107-1.104
			S93.111,39.252,94.429,39.249z M94.429,40.95c0.915,0.007,1.45-0.207,1.45-0.596c0-0.383-0.535-0.603-1.45-0.603
			c-0.928,0-1.46,0.22-1.457,0.603C92.969,40.743,93.5,40.957,94.429,40.95z"/>
		<path d="M103.213,40.699h-5.555V40.17h2.453v-1.436h0.644v1.436h2.459V40.699z M100.09,36.492v-0.054h-1.972v-0.528h4.614v0.528
			h-1.971v0.054c0,0.932,1.053,1.758,2.208,1.938l-0.257,0.508c-0.982-0.183-1.887-0.752-2.283-1.552
			c-0.39,0.81-1.288,1.389-2.25,1.579l-0.264-0.508C99.043,38.267,100.09,37.423,100.09,36.492z"/>
		<path d="M103.658,35.983h1.49v-0.65h0.644v0.65h1.484v0.515h-3.618V35.983z M105.466,36.749c0.874-0.003,1.47,0.417,1.47,1.064
			s-0.596,1.07-1.47,1.063c-0.884,0.007-1.48-0.417-1.477-1.063C103.986,37.166,104.583,36.746,105.466,36.749z M104.539,39.175
			h0.637v0.589h2.602v-0.589h0.644v2.208h-3.882V39.175z M105.466,38.402c0.515-0.003,0.86-0.227,0.867-0.589
			c-0.007-0.356-0.352-0.586-0.867-0.583c-0.515-0.003-0.86,0.227-0.854,0.583C104.606,38.175,104.952,38.399,105.466,38.402z
			 M107.777,40.868v-0.603h-2.602v0.603H107.777z M108.42,36.912h0.881v0.542h-0.881v1.47h-0.644v-3.537h0.644V36.912z"/>
	</g>
	<g>
		<path d="M46.259,1.532c-1.05,0.004-1.746,0.808-1.746,2.232c0,1.457,0.705,2.227,1.737,2.232c0.771-0.005,1.35-0.425,1.485-1.158
			l1.419,0.009C49,6.098,47.95,7.237,46.231,7.237c-1.807,0-3.147-1.274-3.147-3.474c0-2.208,1.363-3.474,3.147-3.474
			c1.56,0,2.736,0.892,2.923,2.447h-1.419C47.623,1.989,47.048,1.536,46.259,1.532z"/>
		<path d="M49.906,4.623c-0.004-1.564,0.953-2.615,2.484-2.615c1.536,0,2.489,1.051,2.493,2.615
			c-0.004,1.569-0.957,2.62-2.493,2.624C50.859,7.242,49.902,6.191,49.906,4.623z M52.4,6.173c0.705-0.005,1.079-0.663,1.074-1.55
			c0.005-0.892-0.369-1.56-1.074-1.56c-0.724,0-1.093,0.668-1.093,1.56C51.307,5.51,51.676,6.168,52.4,6.173z"/>
		<path d="M55.551,4.623c-0.005-1.564,0.952-2.615,2.484-2.615c1.536,0,2.489,1.051,2.493,2.615
			c-0.004,1.569-0.957,2.62-2.493,2.624C56.503,7.242,55.546,6.191,55.551,4.623z M58.044,6.173c0.705-0.005,1.079-0.663,1.074-1.55
			c0.005-0.892-0.369-1.56-1.074-1.56c-0.724,0-1.093,0.668-1.093,1.56C56.951,5.51,57.32,6.168,58.044,6.173z"/>
		<path d="M61.4,2.073h1.363v0.85h0.056c0.191-0.411,0.593-0.915,1.448-0.915c1.121,0,2.059,0.869,2.054,2.605
			c0.005,1.695-0.896,2.615-2.054,2.615c-0.827,0-1.251-0.476-1.448-0.896h-0.037v2.717H61.4V2.073z M63.829,6.126
			c0.705-0.004,1.088-0.625,1.083-1.522c0.005-0.882-0.369-1.494-1.083-1.494c-0.691,0-1.079,0.583-1.074,1.494
			C62.75,5.519,63.142,6.122,63.829,6.126z"/>
		<path d="M67.017,4.632c-0.004-1.564,0.962-2.624,2.447-2.624c1.331,0,2.381,0.841,2.381,2.568v0.392H68.38
			c0,0.766,0.453,1.237,1.167,1.242c0.472-0.004,0.808-0.21,0.943-0.513h1.317c-0.196,0.938-1.037,1.545-2.288,1.55
			C67.965,7.242,67.012,6.238,67.017,4.632z M70.538,4.1c-0.005-0.616-0.43-1.06-1.046-1.055C68.856,3.04,68.408,3.516,68.38,4.1
			H70.538z"/>
		<path d="M72.717,2.073h1.335v0.878h0.056c0.182-0.621,0.654-0.953,1.223-0.953c0.14,0,0.317,0.019,0.439,0.047v1.232
			c-0.131-0.042-0.397-0.075-0.588-0.075c-0.625,0-1.088,0.435-1.083,1.055v2.886h-1.382V2.073z"/>
		<path d="M78.089,4.165c0.364-0.023,1.046-0.056,1.261-0.065V3.689c-0.004-0.425-0.294-0.668-0.813-0.672
			c-0.472,0.004-0.766,0.215-0.84,0.56H76.38c0.084-0.877,0.85-1.569,2.195-1.569c1.106,0,2.152,0.495,2.147,1.718v3.418h-1.307
			v-0.7h-0.038c-0.247,0.467-0.733,0.798-1.484,0.793c-0.971,0.005-1.686-0.509-1.69-1.513C76.208,4.595,77.114,4.226,78.089,4.165z
			 M78.286,6.285c0.63-0.005,1.069-0.416,1.064-0.953V4.963c-0.21,0.009-0.803,0.042-1.037,0.061
			c-0.481,0.042-0.784,0.271-0.784,0.663C77.529,6.075,77.842,6.28,78.286,6.285z"/>
		<path d="M84.453,3.11H83.5v2.475c-0.004,0.406,0.196,0.504,0.477,0.514c0.14,0,0.383-0.014,0.551-0.028v1.092
			c-0.149,0.023-0.397,0.051-0.738,0.047c-0.999,0.004-1.681-0.444-1.671-1.429V3.11h-0.701V2.073h0.701V0.859H83.5v1.214h0.953
			V3.11z"/>
		<path d="M86.015,0c0.411,0.005,0.752,0.318,0.747,0.71c0.005,0.383-0.336,0.7-0.747,0.7c-0.416,0-0.756-0.317-0.756-0.7
			C85.258,0.318,85.599,0.005,86.015,0z M85.324,2.073h1.382v5.071h-1.382V2.073z"/>
		<path d="M90.704,7.144h-1.55L87.38,2.073h1.457l1.065,3.642h0.056l1.065-3.642h1.466L90.704,7.144z"/>
		<path d="M92.959,4.632c-0.005-1.564,0.961-2.624,2.446-2.624c1.331,0,2.381,0.841,2.381,2.568v0.392h-3.464
			c0,0.766,0.453,1.237,1.167,1.242c0.472-0.004,0.808-0.21,0.943-0.513h1.317c-0.196,0.938-1.037,1.545-2.288,1.55
			C93.907,7.242,92.954,6.238,92.959,4.632z M96.479,4.1c-0.005-0.616-0.43-1.06-1.046-1.055C94.798,3.04,94.35,3.516,94.322,4.1
			H96.479z"/>
		<path d="M100.659,4.623c-0.005-1.564,0.952-2.615,2.484-2.615c1.536,0,2.489,1.051,2.493,2.615
			c-0.004,1.569-0.957,2.62-2.493,2.624C101.611,7.242,100.654,6.191,100.659,4.623z M103.152,6.173
			c0.705-0.005,1.079-0.663,1.074-1.55c0.005-0.892-0.369-1.56-1.074-1.56c-0.724,0-1.093,0.668-1.093,1.56
			C102.06,5.51,102.429,6.168,103.152,6.173z"/>
		<path d="M109.208,3.11h-1.008v4.034h-1.382V3.11h-0.719V2.073h0.719V1.69c0-1.069,0.645-1.625,1.663-1.625
			c0.313,0,0.579,0.028,0.822,0.084v1.046c-0.201-0.019-0.346-0.023-0.42-0.028c-0.443,0.005-0.682,0.173-0.682,0.598v0.308h1.008
			V3.11z"/>
	</g>
</g>
</svg>
