<?xml version="1.0" encoding="utf-8"?>
<!-- Generator: Adobe Illustrator 14.0.0, SVG Export Plug-In . SVG Version: 6.00 Build 43363)  -->
<!DOCTYPE svg PUBLIC "-//W3C//DTD SVG 1.1//EN" "http://www.w3.org/Graphics/SVG/1.1/DTD/svg11.dtd">
<svg version="1.1" id="레이어_1" xmlns="http://www.w3.org/2000/svg" xmlns:xlink="http://www.w3.org/1999/xlink" x="0px"
	 y="0px" width="18.907px" height="15.907px" viewBox="0 0 18.907 15.907" enable-background="new 0 0 18.907 15.907"
	 xml:space="preserve" fill="#fff">
<g>
	<circle cx="3.943" cy="7.011" r="0.743"/>
	<circle cx="10.574" cy="7.011" r="0.743"/>
	<path d="M15.031,6.268c-0.408,0-0.741,0.332-0.741,0.744c0,0.41,0.333,0.742,0.741,0.742c0.414,0,0.744-0.332,0.744-0.742
		C15.775,6.6,15.445,6.268,15.031,6.268z"/>
	<path d="M15.921,0H2.985C1.334,0,0,1.344,0,2.998v7.11c0,1.655,1.334,2.996,2.985,2.996h4.457l1.521,2.477
		c0,0,0.016,0.03,0.047,0.069c0.09,0.151,0.254,0.257,0.444,0.257c0.187,0,0.351-0.105,0.44-0.252
		c0.039-0.044,0.049-0.074,0.049-0.074l1.521-2.477h4.456c1.649,0,2.986-1.341,2.986-2.996v-7.11C18.907,1.344,17.57,0,15.921,0z
		 M4.2,8.774c-0.697,0-0.973-0.5-0.973-0.5v0.379H2.057V3.831h1.155v1.837C3.682,5.21,4.2,5.21,4.2,5.21
		c1.569,0,1.63,1.76,1.63,1.76C5.83,8.713,4.2,8.774,4.2,8.774z M7.845,8.653H6.729V5.799c0-0.985-0.527-0.96-0.527-0.96V3.72
		c1.692,0,1.643,1.815,1.643,1.815V8.653z M10.574,8.774c-1.975,0-1.912-1.763-1.912-1.763c0-1.785,1.912-1.785,1.912-1.785
		c2.021,0,1.957,1.785,1.957,1.785C12.53,8.771,10.574,8.774,10.574,8.774z M16.849,8.609c0,1.826-1.69,1.809-1.69,1.809h-0.452
		V9.391h0.281c0.818,0,0.737-0.846,0.737-0.846V8.274c-0.362,0.468-1.019,0.443-1.019,0.443c-1.607,0-1.592-1.718-1.592-1.718
		c0-1.843,1.638-1.772,1.638-1.772c0.641,0,0.973,0.441,0.973,0.441V5.339h1.124V8.609z"/>
</g>
</svg>
