<?xml version="1.0" encoding="utf-8"?>
<!-- Generator: Adobe Illustrator 14.0.0, SVG Export Plug-In . SVG Version: 6.00 Build 43363)  -->
<!DOCTYPE svg PUBLIC "-//W3C//DTD SVG 1.1//EN" "http://www.w3.org/Graphics/SVG/1.1/DTD/svg11.dtd">
<svg version="1.1" id="레이어_1" xmlns="http://www.w3.org/2000/svg" xmlns:xlink="http://www.w3.org/1999/xlink" x="0px"
	 y="0px" width="21.424px" height="14.997px" viewBox="0 0 21.424 14.997" enable-background="new 0 0 21.424 14.997"
	 xml:space="preserve" fill="#fff">
<path d="M20.979,2.341c-0.249-0.922-0.975-1.646-1.895-1.895C17.411,0,10.711,0,10.711,0S4.012,0,2.342,0.446
	C1.419,0.695,0.693,1.418,0.448,2.341C0,4.013,0,7.499,0,7.499s0,3.487,0.448,5.156c0.246,0.921,0.971,1.649,1.894,1.896
	c1.67,0.446,8.369,0.446,8.369,0.446s6.7,0,8.373-0.446c0.92-0.247,1.646-0.976,1.895-1.896c0.445-1.669,0.445-5.156,0.445-5.156
	S21.424,4.013,20.979,2.341 M8.571,10.714V4.283l5.565,3.215L8.571,10.714z"/>
</svg>
