<?xml version="1.0" encoding="utf-8"?>
<!-- Generator: Adobe Illustrator 14.0.0, SVG Export Plug-In . SVG Version: 6.00 Build 43363)  -->
<!DOCTYPE svg PUBLIC "-//W3C//DTD SVG 1.1//EN" "http://www.w3.org/Graphics/SVG/1.1/DTD/svg11.dtd">
<svg version="1.1" id="레이어_1" xmlns="http://www.w3.org/2000/svg" xmlns:xlink="http://www.w3.org/1999/xlink" x="0px"
	 y="0px" width="18.103px" height="18.137px" viewBox="0 0 18.103 18.137" enable-background="new 0 0 18.103 18.137"
	 xml:space="preserve" fill="#fff">
<g>
	<path d="M0,12.391V5.748c0.013-0.049,0.029-0.095,0.038-0.144C0.051,5.385,0.06,5.167,0.073,4.946
		c0.026-0.615,0.159-1.207,0.375-1.782C0.751,2.336,1.266,1.666,1.957,1.13c0.795-0.624,1.736-0.915,2.73-1.012
		c0.625-0.063,1.256-0.059,1.888-0.079c0.219-0.009,0.44,0,0.665-0.004C7.29,0.035,7.343,0.014,7.398,0h3.304
		c0.035,0.014,0.075,0.035,0.107,0.035c0.602,0.014,1.201,0.018,1.803,0.041c0.41,0.017,0.817,0.058,1.22,0.107
		c0.568,0.066,1.108,0.249,1.613,0.508c0.546,0.279,1.017,0.656,1.414,1.13c0.353,0.426,0.62,0.895,0.81,1.41
		c0.294,0.789,0.39,1.609,0.393,2.445c0.005,0.072,0.027,0.143,0.041,0.214v6.394c-0.014,0.024-0.036,0.046-0.036,0.071
		c-0.015,0.268-0.015,0.534-0.041,0.803c-0.027,0.319-0.046,0.648-0.114,0.96c-0.236,1.027-0.668,1.942-1.477,2.662
		c-0.488,0.43-1.025,0.752-1.627,0.963c-0.795,0.274-1.617,0.36-2.454,0.358c-0.07,0-0.144,0.022-0.216,0.035H5.965
		c-0.04-0.013-0.073-0.031-0.108-0.035c-0.511-0.037-1.021-0.057-1.526-0.11c-0.535-0.058-1.04-0.222-1.528-0.446
		c-0.592-0.278-1.098-0.666-1.533-1.166c-0.325-0.368-0.575-0.777-0.762-1.221c-0.345-0.832-0.479-1.708-0.47-2.605
		C0.038,12.499,0.013,12.445,0,12.391 M12.089,16.489c0-0.009,0-0.013,0-0.018c0.375-0.03,0.757-0.064,1.138-0.093
		c0.547-0.04,1.071-0.19,1.555-0.462c0.529-0.296,0.927-0.727,1.196-1.266c0.24-0.482,0.35-1.008,0.397-1.541
		c0.042-0.525,0.073-1.055,0.073-1.584c-0.005-1.775-0.022-3.55-0.031-5.325c-0.005-0.598-0.027-1.194-0.142-1.784
		c-0.13-0.651-0.396-1.229-0.866-1.702c-0.407-0.415-0.917-0.664-1.479-0.815c-0.688-0.185-1.392-0.199-2.091-0.206
		C9.874,1.681,7.904,1.716,5.938,1.72C5.396,1.724,4.85,1.751,4.32,1.866C3.511,2.043,2.837,2.426,2.354,3.114
		C1.957,3.688,1.782,4.335,1.731,5.013C1.677,5.711,1.667,6.415,1.654,7.12C1.641,7.77,1.641,8.421,1.65,9.073
		c0.022,1.29,0.046,2.576,0.073,3.866c0.013,0.556,0.13,1.09,0.354,1.604c0.287,0.659,0.766,1.133,1.382,1.459
		c0.488,0.256,1.033,0.367,1.577,0.408c0.574,0.042,1.151,0.069,1.729,0.069C8.54,16.493,10.313,16.489,12.089,16.489"/>
	<path fill-rule="evenodd" clip-rule="evenodd" d="M4.384,9.091c-0.013-2.56,2.073-4.78,4.875-4.671
		c2.376,0.094,4.514,2.041,4.455,4.783c-0.058,2.481-2.033,4.572-4.739,4.542C6.457,13.72,4.397,11.708,4.384,9.091 M12.033,9.083
		c0.022-1.668-1.352-3.018-2.99-3c-1.7,0.014-2.993,1.323-2.997,3.001c-0.004,1.623,1.257,2.897,2.829,2.985
		C10.682,12.178,12.089,10.661,12.033,9.083"/>
	<path fill-rule="evenodd" clip-rule="evenodd" d="M13.045,4.255c-0.071-0.557,0.518-1.137,1.14-1.105
		c0.527,0.025,1.071,0.501,1.058,1.139c-0.014,0.539-0.501,1.083-1.131,1.068C13.574,5.345,12.992,4.867,13.045,4.255"/>
</g>
</svg>
